<svg xmlns="http://www.w3.org/2000/svg" xmlns:xlink="http://www.w3.org/1999/xlink" width="200" zoomAndPan="magnify" viewBox="0 0 150 30.000001" height="40" preserveAspectRatio="xMidYMid meet" version="1.0"><defs><g/><clipPath id="id1"><path d="M 134 7 L 147.578125 7 L 147.578125 23 L 134 23 Z M 134 7 " clip-rule="nonzero"/></clipPath><clipPath id="id2"><path d="M 3 1 L 45.363281 1 L 45.363281 26 L 3 26 Z M 3 1 " clip-rule="nonzero"/></clipPath><clipPath id="id3"><path d="M 23 19 L 37 19 L 37 29.03125 L 23 29.03125 Z M 23 19 " clip-rule="nonzero"/></clipPath></defs><g fill="#071c1f" fill-opacity="1"><g transform="translate(48.578684, 22.331397)"><g><path d="M 2.078125 -15.09375 L 6.359375 -15.09375 C 8.253906 -15.09375 9.820312 -14.71875 11.0625 -13.96875 C 12.300781 -13.226562 13.203125 -12.269531 13.765625 -11.09375 C 14.335938 -9.914062 14.625 -8.664062 14.625 -7.34375 C 14.625 -5.875 14.28125 -4.582031 13.59375 -3.46875 C 12.90625 -2.351562 11.988281 -1.492188 10.84375 -0.890625 C 9.695312 -0.296875 8.445312 0 7.09375 0 L 2.078125 0 Z M 6.65625 -2.328125 C 7.726562 -2.328125 8.675781 -2.523438 9.5 -2.921875 C 10.320312 -3.328125 10.960938 -3.921875 11.421875 -4.703125 C 11.890625 -5.484375 12.125 -6.414062 12.125 -7.5 C 12.125 -8.6875 11.867188 -9.675781 11.359375 -10.46875 C 10.859375 -11.269531 10.21875 -11.859375 9.4375 -12.234375 C 8.65625 -12.609375 7.851562 -12.796875 7.03125 -12.796875 L 4.5 -12.796875 L 4.5 -2.328125 Z M 6.65625 -2.328125 "/></g></g></g><g fill="#071c1f" fill-opacity="1"><g transform="translate(63.850063, 22.331397)"><g><path d="M 4.5 -15.09375 L 4.5 0 L 2.078125 0 L 2.078125 -15.09375 Z M 4.5 -15.09375 "/></g></g></g><g fill="#071c1f" fill-opacity="1"><g transform="translate(69.921152, 22.331397)"><g><path d="M 9.828125 -3.546875 L 4.328125 -3.546875 L 2.875 0 L 0.5 0 L 7.171875 -15.71875 L 7.3125 -15.71875 L 14 0 L 11.21875 0 Z M 9.015625 -5.625 L 7.125 -10.390625 L 5.1875 -5.625 Z M 9.015625 -5.625 "/></g></g></g><g fill="#071c1f" fill-opacity="1"><g transform="translate(83.907802, 22.331397)"><g><path d="M 14.078125 -1.390625 C 13.660156 -1.003906 12.9375 -0.644531 11.90625 -0.3125 C 10.875 0.0078125 9.929688 0.171875 9.078125 0.171875 C 7.492188 0.171875 6.097656 -0.144531 4.890625 -0.78125 C 3.691406 -1.414062 2.765625 -2.289062 2.109375 -3.40625 C 1.460938 -4.519531 1.140625 -5.78125 1.140625 -7.1875 C 1.140625 -8.894531 1.488281 -10.351562 2.1875 -11.5625 C 2.882812 -12.78125 3.820312 -13.703125 5 -14.328125 C 6.1875 -14.953125 7.484375 -15.265625 8.890625 -15.265625 C 9.765625 -15.265625 10.59375 -15.160156 11.375 -14.953125 C 12.15625 -14.753906 12.84375 -14.488281 13.4375 -14.15625 L 12.640625 -11.921875 C 12.234375 -12.171875 11.6875 -12.382812 11 -12.5625 C 10.3125 -12.738281 9.710938 -12.828125 9.203125 -12.828125 C 7.472656 -12.828125 6.109375 -12.347656 5.109375 -11.390625 C 4.117188 -10.441406 3.625 -9.113281 3.625 -7.40625 C 3.625 -6.382812 3.851562 -5.484375 4.3125 -4.703125 C 4.78125 -3.921875 5.429688 -3.3125 6.265625 -2.875 C 7.109375 -2.445312 8.066406 -2.234375 9.140625 -2.234375 C 9.628906 -2.234375 10.09375 -2.28125 10.53125 -2.375 C 10.976562 -2.46875 11.351562 -2.59375 11.65625 -2.75 L 11.65625 -5.265625 L 8.8125 -5.265625 L 8.8125 -7.59375 L 14.078125 -7.59375 Z M 14.078125 -1.390625 "/></g></g></g><g fill="#071c1f" fill-opacity="1"><g transform="translate(99.075577, 22.331397)"><g><path d="M 15.40625 -15.09375 L 15.40625 0.546875 L 15.34375 0.546875 L 4.453125 -10.015625 L 4.515625 0 L 2.078125 0 L 2.078125 -15.609375 L 2.203125 -15.609375 L 13.046875 -4.9375 L 13 -15.09375 Z M 15.40625 -15.09375 "/></g></g></g><g fill="#071c1f" fill-opacity="1"><g transform="translate(116.066831, 22.331397)"><g><path d="M 1.140625 -7.53125 C 1.140625 -8.90625 1.484375 -10.179688 2.171875 -11.359375 C 2.867188 -12.546875 3.804688 -13.492188 4.984375 -14.203125 C 6.171875 -14.910156 7.460938 -15.265625 8.859375 -15.265625 C 10.234375 -15.265625 11.507812 -14.910156 12.6875 -14.203125 C 13.875 -13.492188 14.820312 -12.546875 15.53125 -11.359375 C 16.238281 -10.171875 16.59375 -8.894531 16.59375 -7.53125 C 16.59375 -6.132812 16.242188 -4.847656 15.546875 -3.671875 C 14.847656 -2.492188 13.898438 -1.554688 12.703125 -0.859375 C 11.515625 -0.171875 10.234375 0.171875 8.859375 0.171875 C 7.460938 0.171875 6.171875 -0.171875 4.984375 -0.859375 C 3.804688 -1.546875 2.867188 -2.472656 2.171875 -3.640625 C 1.484375 -4.816406 1.140625 -6.113281 1.140625 -7.53125 Z M 3.625 -7.53125 C 3.625 -6.539062 3.859375 -5.640625 4.328125 -4.828125 C 4.796875 -4.015625 5.4375 -3.363281 6.25 -2.875 C 7.0625 -2.394531 7.953125 -2.15625 8.921875 -2.15625 C 9.867188 -2.15625 10.734375 -2.394531 11.515625 -2.875 C 12.304688 -3.351562 12.929688 -4 13.390625 -4.8125 C 13.859375 -5.632812 14.09375 -6.539062 14.09375 -7.53125 C 14.09375 -8.507812 13.859375 -9.410156 13.390625 -10.234375 C 12.921875 -11.066406 12.285156 -11.722656 11.484375 -12.203125 C 10.679688 -12.691406 9.804688 -12.9375 8.859375 -12.9375 C 7.890625 -12.9375 7.003906 -12.691406 6.203125 -12.203125 C 5.410156 -11.722656 4.78125 -11.066406 4.3125 -10.234375 C 3.851562 -9.410156 3.625 -8.507812 3.625 -7.53125 Z M 3.625 -7.53125 "/></g></g></g><g clip-path="url(#id1)"><g fill="#071c1f" fill-opacity="1"><g transform="translate(133.286011, 22.331397)"><g><path d="M 14.078125 -1.390625 C 13.660156 -1.003906 12.9375 -0.644531 11.90625 -0.3125 C 10.875 0.0078125 9.929688 0.171875 9.078125 0.171875 C 7.492188 0.171875 6.097656 -0.144531 4.890625 -0.78125 C 3.691406 -1.414062 2.765625 -2.289062 2.109375 -3.40625 C 1.460938 -4.519531 1.140625 -5.78125 1.140625 -7.1875 C 1.140625 -8.894531 1.488281 -10.351562 2.1875 -11.5625 C 2.882812 -12.78125 3.820312 -13.703125 5 -14.328125 C 6.1875 -14.953125 7.484375 -15.265625 8.890625 -15.265625 C 9.765625 -15.265625 10.59375 -15.160156 11.375 -14.953125 C 12.15625 -14.753906 12.84375 -14.488281 13.4375 -14.15625 L 12.640625 -11.921875 C 12.234375 -12.171875 11.6875 -12.382812 11 -12.5625 C 10.3125 -12.738281 9.710938 -12.828125 9.203125 -12.828125 C 7.472656 -12.828125 6.109375 -12.347656 5.109375 -11.390625 C 4.117188 -10.441406 3.625 -9.113281 3.625 -7.40625 C 3.625 -6.382812 3.851562 -5.484375 4.3125 -4.703125 C 4.78125 -3.921875 5.429688 -3.3125 6.265625 -2.875 C 7.109375 -2.445312 8.066406 -2.234375 9.140625 -2.234375 C 9.628906 -2.234375 10.09375 -2.28125 10.53125 -2.375 C 10.976562 -2.46875 11.351562 -2.59375 11.65625 -2.75 L 11.65625 -5.265625 L 8.8125 -5.265625 L 8.8125 -7.59375 L 14.078125 -7.59375 Z M 14.078125 -1.390625 "/></g></g></g></g><g clip-path="url(#id2)"><path fill="#36cfa6" d="M 16.308594 1.8125 C 11.128906 1.878906 7.730469 2.851562 7.074219 4.789062 C 5.484375 9.484375 20.554688 18.042969 40.738281 23.90625 C 42.332031 24.371094 43.910156 24.800781 45.46875 25.203125 C 43.109375 24.742188 40.6875 24.210938 38.222656 23.605469 C 17.628906 18.554688 1.917969 10.4375 3.128906 5.480469 C 3.753906 2.917969 8.769531 1.699219 16.308594 1.8125 " fill-opacity="1" fill-rule="nonzero"/></g><path fill="#071c1f" d="M 31.363281 17.792969 L 27.019531 17.792969 L 27.019531 18.394531 C 25.804688 17.894531 24.628906 17.390625 23.503906 16.882812 L 23.503906 14.269531 L 31.363281 14.269531 L 31.363281 17.792969 " fill-opacity="1" fill-rule="nonzero"/><path fill="#071c1f" d="M 14.554688 12.15625 C 13.394531 11.414062 12.371094 10.6875 11.503906 9.980469 C 12.199219 7.84375 13.394531 5.886719 15.027344 4.253906 C 17.761719 1.511719 21.394531 0.00390625 25.261719 0.00390625 C 25.847656 0.00390625 26.421875 0.0351562 26.996094 0.105469 L 26.996094 11.699219 L 23.503906 11.699219 L 23.503906 3.667969 C 19.066406 4.386719 15.511719 7.789062 14.554688 12.15625 " fill-opacity="1" fill-rule="nonzero"/><path fill="#071c1f" d="M 36.222656 14.511719 C 36.222656 9.949219 33.433594 6.03125 29.476562 4.371094 L 29.476562 0.621094 C 31.726562 1.304688 33.789062 2.539062 35.5 4.253906 C 38.234375 6.992188 39.738281 10.636719 39.738281 14.511719 C 39.738281 17.28125 38.972656 19.929688 37.535156 22.214844 C 36.355469 21.835938 35.195312 21.449219 34.0625 21.054688 C 35.417969 19.226562 36.222656 16.960938 36.222656 14.511719 " fill-opacity="1" fill-rule="nonzero"/><path fill="#0a9a73" d="M 10.8125 13.601562 C 11.894531 14.207031 13.074219 14.816406 14.339844 15.421875 C 14.679688 19.570312 17.332031 23.074219 20.996094 24.632812 L 20.996094 28.386719 C 18.765625 27.699219 16.722656 26.472656 15.027344 24.773438 C 12.292969 22.03125 10.785156 18.386719 10.785156 14.511719 C 10.785156 14.207031 10.796875 13.902344 10.8125 13.601562 " fill-opacity="1" fill-rule="nonzero"/><g clip-path="url(#id3)"><path fill="#0a9a73" d="M 27.019531 25.359375 C 29.355469 24.980469 31.445312 23.855469 33.042969 22.242188 C 34.28125 22.589844 35.539062 22.929688 36.820312 23.253906 C 36.417969 23.785156 35.976562 24.292969 35.5 24.773438 C 32.765625 27.515625 29.128906 29.023438 25.261719 29.023438 C 24.671875 29.023438 24.082031 28.988281 23.503906 28.917969 L 23.503906 19.203125 C 24.644531 19.613281 25.816406 20.015625 27.019531 20.410156 L 27.019531 25.359375 " fill-opacity="1" fill-rule="nonzero"/></g></svg>